HIERARCHY
ROOT Hips
{
	OFFSET -3.958830 18.904000 13.208200
	CHANNELS 6 Xposition Yposition Zposition Zrotation Yrotation Xrotation 
	JOINT LHipJoint
	{
		OFFSET 0.000000 0.000000 0.000000
		CHANNELS 3 Zrotation Yrotation Xrotation
		JOINT LeftUpLeg
		{
			OFFSET 1.800000 -1.400000 0.085000
			CHANNELS 3 Zrotation Yrotation Xrotation
			JOINT LeftLeg
			{
				OFFSET 2.215000 -6.000000 0.000000
				CHANNELS 3 Zrotation Yrotation Xrotation
				JOINT LeftFoot
				{
					OFFSET 2.500000 -6.900000 0.000000
					CHANNELS 3 Zrotation Yrotation Xrotation
					JOINT LeftToeBase
					{
						OFFSET 0.200000 -0.500000 1.950000
						CHANNELS 3 Zrotation Yrotation Xrotation
						End Site
						{
							OFFSET 0.000000 0.000000 0.000000
						}
					}
				}
			}
		}
	}
	JOINT RHipJoint
	{
		OFFSET 0.000000 0.000000 0.000000
		CHANNELS 3 Zrotation Yrotation Xrotation
		JOINT RightUpLeg
		{
			OFFSET -1.800000 -1.400000 0.085000
			CHANNELS 3 Zrotation Yrotation Xrotation
			JOINT RightLeg
			{
				OFFSET -2.215000 -6.000000 0.000000
				CHANNELS 3 Zrotation Yrotation Xrotation
				JOINT RightFoot
				{
					OFFSET -2.500000 -6.900000 0.000000
					CHANNELS 3 Zrotation Yrotation Xrotation
					JOINT RightToeBase
					{
						OFFSET -0.200000 -0.500000 1.950000
						CHANNELS 3 Zrotation Yrotation Xrotation
						End Site
						{
							OFFSET 0.000000 0.000000 0.000000
						}
					}
				}
			}
		}
	}
	JOINT LowerBack
	{
		OFFSET 0.000000 0.000000 0.000000
		CHANNELS 3 Zrotation Yrotation Xrotation
		JOINT Spine
		{
			OFFSET -0.087000 1.940000 -0.288900
			CHANNELS 3 Zrotation Yrotation Xrotation
			JOINT Spine1
			{
				OFFSET 0.000000 1.950000 0.060000
				CHANNELS 3 Zrotation Yrotation Xrotation
				JOINT Neck
				{
					OFFSET 0.000000 0.000000 0.000000
					CHANNELS 3 Zrotation Yrotation Xrotation
					JOINT Neck1
					{
						OFFSET 0.000000 1.600000 0.340000
						CHANNELS 3 Zrotation Yrotation Xrotation
						JOINT Head
						{
							OFFSET 0.000000 1.667000 -0.240000
							CHANNELS 3 Zrotation Yrotation Xrotation
							End Site
							{
								OFFSET 0.000000 0.000000 0.000000
							}
						}
					}
				}
				JOINT LeftShoulder
				{
					OFFSET 0.000000 0.000000 0.000000
					CHANNELS 3 Zrotation Yrotation Xrotation
					JOINT LeftArm
					{
						OFFSET 2.700000 1.550000 -0.730000
						CHANNELS 3 Zrotation Yrotation Xrotation
						JOINT LeftForeArm
						{
							OFFSET 5.450000 0.000000 0.000000
							CHANNELS 3 Zrotation Yrotation Xrotation
							JOINT LeftHand
							{
								OFFSET 3.450000 0.000000 0.000000
								CHANNELS 3 Zrotation Yrotation Xrotation
								JOINT LeftHandIndex1
								{
									OFFSET 0.750000 0.000000 0.000000
									CHANNELS 3 Zrotation Yrotation Xrotation
									End Site
									{
										OFFSET 0.000000 0.000000 0.000000
									}
								}
							}
						}
					}
				}
				JOINT RightShoulder
				{
					OFFSET 0.000000 0.000000 0.000000
					CHANNELS 3 Zrotation Yrotation Xrotation
					JOINT RightArm
					{
						OFFSET -2.700000 1.550000 -0.730000
						CHANNELS 3 Zrotation Yrotation Xrotation
						JOINT RightForeArm
						{
							OFFSET -5.450000 0.000000 0.000000
							CHANNELS 3 Zrotation Yrotation Xrotation
							JOINT RightHand
							{
								OFFSET -3.450000 0.000000 0.000000
								CHANNELS 3 Zrotation Yrotation Xrotation
								JOINT RightHandIndex1
								{
									OFFSET -0.750000 0.000000 0.000000
									CHANNELS 3 Zrotation Yrotation Xrotation
									End Site
									{
										OFFSET 0.000000 0.000000 0.000000
									}
								}
							}
						}
					}
				}
			}
		}
	}
}
MOTION
Frames: 13
Frame Time: 0.016667
-0.560950 17.997940 -2.447760 -2.782442 0.876612 11.428846 -14.980383 12.652019 2.786255 6.583737 -2.367547 -17.578392 -8.477967 5.477791 10.616024 -0.374817 4.097500 3.517870 -0.029730 -0.252290 -0.164940 18.454815 -11.435457 2.341825 -11.137307 1.387010 -19.698413 4.635193 -4.780530 15.568329 0.331231 -3.768582 3.204574 0.107410 0.943290 0.272970 -4.137913 0.243654 -6.392683 8.869472 1.911784 0.008739 0.637183 1.123375 6.014034 0.837798 0.201929 -7.505378 1.413019 -0.845561 17.570364 -4.086350 -0.155300 7.033140 -16.944138 -6.125126 3.507327 -64.426122 -9.804566 -2.166093 -6.856417 -25.502136 -0.997703 -4.470309 3.189634 -0.325840 0.783880 -0.654990 0.264800 15.516365 7.037097 2.918259 56.798164 8.618918 -0.631880 -2.385203 7.050732 -1.476380 2.342539 -1.792962 -0.291790 0.195010 0.138690 0.060300 
-0.540560 18.038580 -2.459890 -3.047209 1.191390 11.421625 -14.972691 12.694851 2.805365 6.184755 -2.395616 -17.495973 -8.232413 5.349421 10.494655 -0.413343 4.011425 3.509487 0.027600 -0.208850 -0.080990 18.458670 -11.404905 2.368914 -10.943279 1.518215 -20.783693 5.129766 -5.144880 17.177107 0.277259 -3.782330 3.154497 0.116110 0.848980 0.279130 -4.160255 0.125876 -6.447313 10.164382 1.466115 0.519977 0.050648 0.748157 6.280573 1.148223 0.147527 -7.600307 1.154165 -0.992836 18.378147 -4.368050 0.035860 5.403690 -16.501257 -6.103646 3.545287 -63.846433 -10.441810 -2.185048 -8.299685 -28.269935 -0.664309 -4.389699 3.198720 -0.246310 0.716850 -0.581000 0.240040 14.401977 6.705909 3.041715 56.121370 8.518613 -1.211965 -2.430684 9.113724 -1.608966 2.320077 -1.750092 -0.273530 0.179880 0.116620 0.020830 
-0.498190 18.104040 -2.479170 -3.354372 1.643270 11.122481 -14.950236 12.811240 2.818055 5.552431 -2.352308 -17.048363 -7.778024 5.291253 10.947289 -0.423619 3.893972 3.484415 0.108660 -0.138590 0.024060 18.470113 -11.366982 2.435110 -10.466666 1.835422 -23.184622 5.203134 -5.777222 21.129416 0.183042 -3.888286 3.050110 0.113310 0.690560 0.271830 -4.216716 -0.101929 -6.563774 12.152998 0.624177 1.822965 -0.754633 0.129122 6.372030 1.396873 -0.261584 -7.715044 0.102377 -0.763445 20.286103 -4.114440 0.308720 3.063730 -16.870051 -6.222393 3.686196 -62.554451 -11.086779 -2.546059 -10.938686 -34.195450 0.246033 -4.221419 3.240145 -0.129230 0.588320 -0.462990 0.208290 14.148489 6.698395 3.216001 54.198143 8.338833 -2.026787 -3.206274 11.397451 -1.709935 2.325065 -1.683039 -0.229890 0.143270 0.074200 -0.023160 
-0.457800 18.135370 -2.502460 -3.534074 2.984225 11.307371 -14.961933 12.822060 2.774829 4.870637 -2.362669 -16.747975 -7.437126 5.222601 11.201822 -0.501795 3.864379 3.487377 0.174590 -0.083650 0.114780 18.488080 -11.140819 2.643095 -10.689178 2.431702 -27.030373 7.096131 -7.348191 26.314924 0.054684 -4.458508 2.795436 0.157170 0.628210 0.251350 -4.246312 -0.393660 -6.686561 13.739484 -0.544285 2.733814 -0.995995 -0.851035 6.727006 1.445632 -0.425539 -7.680989 -0.343145 -1.093252 20.694621 -4.842520 0.442180 1.029270 -16.413705 -5.874681 3.710845 -61.282499 -11.861638 -2.539265 -14.850387 -41.328626 2.002466 -4.135382 3.255720 -0.041310 0.538960 -0.406480 0.205600 13.528126 5.902800 3.043402 52.017691 7.985600 -2.899397 -3.610344 14.417856 -1.916644 2.264761 -1.636805 -0.258370 0.181900 0.040680 -0.069530 
-0.444720 18.170320 -2.545170 -3.170451 3.529047 10.630726 -14.992845 12.933347 2.763303 3.852059 -2.417561 -16.372954 -7.460136 5.682238 13.778963 -0.456230 3.975997 3.394369 0.204640 -0.068660 0.199010 18.467098 -10.868759 2.924053 -10.903729 2.979974 -30.314284 8.476374 -9.001878 31.453469 -0.128246 -5.115322 2.522941 0.119000 0.488860 0.221540 -4.179453 -0.922874 -6.973481 14.022887 -1.782374 5.183332 -0.859076 -1.698370 6.896389 1.534292 -0.626689 -8.256412 -1.306688 -0.989866 23.594800 -4.911140 0.907350 -0.978740 -16.927767 -7.399851 4.296809 -58.064634 -12.129873 -3.327005 -17.602313 -49.049858 3.849331 -3.971310 3.270912 0.077690 0.416060 -0.299940 0.166010 13.807974 7.272571 3.681369 49.020311 7.664395 -3.955010 -4.302184 17.826992 -1.955455 2.259421 -1.540353 -0.238430 0.166910 0.011200 -0.113900 
-0.419760 18.172930 -2.563020 -2.924267 3.788226 9.825878 -15.015329 13.004630 2.742734 2.919400 -2.520747 -15.644583 -7.663490 6.389596 17.325239 -0.390582 4.306544 3.225669 0.242110 -0.047360 0.277320 18.457619 -10.561444 3.237043 -11.572579 3.412610 -32.634383 11.291203 -11.016675 34.710431 -0.334644 -5.822820 2.240360 0.094480 0.366620 0.212120 -4.138716 -1.418286 -7.273146 14.827951 -2.938152 7.782969 -1.062269 -2.400586 6.899137 1.788195 -1.168525 -8.692205 -2.760976 -0.448374 26.082856 -5.329800 1.721780 -3.262870 -17.696689 -8.122839 4.593753 -54.666396 -11.812005 -3.928131 -20.861881 -56.995067 6.459562 -3.844595 3.304940 0.188530 0.313570 -0.204240 0.131000 14.024798 8.093976 4.217400 45.739442 6.756612 -5.465208 -4.466600 23.274651 -1.979392 2.206697 -1.473095 -0.218950 0.146710 -0.009580 -0.158380 
-0.403520 18.141800 -2.572460 -2.763941 3.629894 9.190784 -15.038334 12.981687 2.726701 1.895234 -2.796980 -15.276202 -7.657393 7.199204 21.675894 -0.287524 4.776682 3.018100 0.287410 0.017040 0.322880 18.472012 -10.243780 3.556788 -11.509203 4.121086 -35.481421 12.830767 -12.670418 38.408676 -0.537997 -6.535643 1.987932 0.105640 0.286780 0.199420 -4.121112 -1.761289 -7.521884 15.424693 -3.951587 10.110267 -1.194605 -3.014924 6.994975 1.847403 -1.721375 -8.890962 -4.036803 0.118694 27.608619 -5.471460 2.316700 -5.392680 -17.106051 -7.939815 4.781752 -52.136312 -11.515566 -3.991817 -25.077368 -64.838519 10.230439 -3.764021 3.357790 0.243820 0.248320 -0.133870 0.121970 13.316769 8.145412 4.166625 43.719637 7.023938 -6.227027 -5.506382 26.895945 -2.125659 2.168828 -1.439701 -0.193520 0.146400 -0.037560 -0.172280 
-0.384100 18.098230 -2.591270 -2.596824 2.654406 7.713997 -15.089979 13.025118 2.769976 0.762718 -3.060949 -14.032317 -7.601495 8.104563 26.220427 -0.160512 5.429735 2.750374 0.316800 0.032450 0.394650 18.439019 -9.861293 3.904277 -11.486409 5.046302 -37.449491 15.827509 -14.331856 40.168312 -0.750880 -7.046514 1.811719 0.080940 0.177520 0.181590 -3.984167 -2.301250 -7.883737 15.610770 -4.746844 14.293378 -1.125535 -3.164850 6.972654 2.138956 -2.653851 -9.599273 -6.210666 0.799387 29.994014 -5.835660 2.941070 -9.294010 -17.077747 -8.750890 5.191639 -48.614993 -10.791684 -4.300553 -31.541844 -73.688184 16.457430 -3.674082 3.350316 0.375950 0.138960 -0.031800 0.087730 12.762673 9.712283 4.873528 41.316578 6.236480 -8.068800 -6.358566 32.804869 -2.282429 2.097384 -1.355742 -0.190290 0.163870 -0.046530 -0.216060 
-0.344310 18.012910 -2.601030 -2.777596 1.161417 6.825751 -15.105905 12.884938 2.786047 -0.592186 -3.439094 -13.196624 -7.309277 9.008524 31.138441 0.047865 6.128277 2.466105 0.379340 0.125410 0.442860 18.480636 -9.493392 4.251858 -11.047511 6.305462 -40.133926 18.329210 -15.733241 41.951261 -0.952173 -7.563418 1.627922 0.096740 0.077260 0.187350 -4.001721 -2.484026 -8.110553 16.848447 -5.732855 17.427301 -2.102855 -3.496538 7.176311 2.474856 -3.524454 -9.911055 -7.786794 1.750839 30.359053 -6.212390 3.910680 -12.093490 -16.707442 -8.429040 5.630087 -45.435494 -9.425018 -3.366566 -49.569562 -83.495052 34.531770 -3.706978 3.395183 0.405330 0.066560 0.045440 0.079510 11.730142 10.032032 4.798473 39.726341 6.348016 -9.587774 -7.790314 39.275149 -2.843416 2.041307 -1.383209 -0.130620 0.122810 -0.088300 -0.217890 
-0.325420 17.884710 -2.601870 -2.607592 -1.278801 6.135549 -15.167206 12.694286 2.910655 -1.961897 -3.894636 -12.462156 -8.867910 10.768873 35.686188 0.276138 7.179508 2.103174 0.391220 0.135690 0.463530 18.489970 -9.068776 4.524305 -9.990285 7.888268 -42.659363 20.150784 -16.253495 42.600035 -1.060038 -7.755287 1.572320 0.099480 0.054380 0.192030 -3.909567 -2.739385 -8.341691 16.597614 -6.084636 20.413593 -2.110670 -3.445417 7.315521 2.513469 -4.472430 -9.897422 -9.522883 2.742532 30.446978 -6.947670 4.763000 -14.441950 -15.948565 -7.849286 5.381962 -43.171497 -7.717789 -6.984373 -140.322890 -83.543886 128.018375 -3.498018 2.627094 0.455180 0.040480 0.079510 0.070900 10.952743 10.158779 4.699863 37.529135 6.258462 -10.970464 -7.986243 46.336037 -3.184471 1.952451 -1.384837 -0.138090 0.140880 -0.081380 -0.234610 
-0.299210 17.732340 -2.604710 -2.766652 -3.488066 5.467785 -15.224986 12.458339 3.010926 -3.322419 -4.341285 -11.967303 -10.224794 12.441116 39.659844 0.518600 8.094430 1.786594 0.444070 0.213400 0.503130 18.506336 -8.649286 4.790832 -9.134942 9.482635 -44.792631 23.819185 -17.107925 41.837397 -1.199133 -7.930974 1.515918 0.129740 -0.005170 0.198770 -3.853235 -2.907615 -8.531413 16.904774 -6.533937 23.181676 -2.315337 -3.437335 7.980190 2.615284 -5.543801 -9.934583 -11.410858 3.135692 29.854268 -8.331920 5.167950 -17.357690 -14.626429 -6.455117 5.670475 -40.867055 -7.465368 -4.004182 169.869656 -76.827924 -178.621581 -3.544126 3.341319 0.481380 -0.000150 0.133660 0.072240 9.478066 9.760037 4.223448 36.084026 6.445608 -12.412037 -9.578257 53.758536 -4.370343 1.871023 -1.416905 -0.109530 0.135700 -0.108960 -0.238160 
-0.278420 17.546900 -2.606240 -3.095492 -4.127923 4.365263 -15.259873 12.297281 3.102153 -4.282715 -4.781809 -10.978069 -11.343004 13.769550 42.676785 0.727330 8.849695 1.546215 0.466200 0.269120 0.487950 18.517160 -8.395381 4.893772 -7.654757 10.471643 -45.321433 27.914608 -17.463138 39.112216 -1.267614 -7.810295 1.567358 0.153690 -0.016870 0.201520 -3.832883 -3.019706 -8.639086 17.566549 -7.495841 26.180329 -2.783633 -3.817017 8.462404 2.582307 -6.119914 -9.899177 -12.278557 3.319098 28.904283 -8.224230 5.264990 -19.955490 -12.980927 -5.291878 5.806949 -38.269052 -7.602033 -2.198938 158.155571 -66.516708 -160.816839 -3.619934 3.345475 0.496970 -0.021490 0.164210 0.087720 7.930509 8.924018 3.771057 35.323221 6.055013 -14.015841 -13.345426 61.203182 -7.194020 1.778167 -1.419662 -0.096960 0.150390 -0.115390 -0.222340 
-0.266460 17.332070 -2.607370 -3.258083 -4.905466 3.353923 -15.315739 12.184909 3.203224 -5.425335 -5.262275 -10.064010 -11.751853 14.811175 45.735762 0.915104 9.580543 1.341661 0.417070 0.204170 0.486310 18.497490 -8.167354 4.979483 -6.235335 11.353026 -45.739070 31.688412 -17.416374 36.126691 -1.277074 -7.603907 1.651175 0.114790 0.003730 0.207610 -3.737213 -3.178426 -8.774980 17.434133 -7.925361 29.078889 -2.906233 -3.826008 8.841036 2.794582 -5.724147 -10.019649 -11.476306 3.185632 28.728185 -9.516710 6.277830 -20.857910 -11.566027 -4.932441 5.851706 -34.362685 -7.556937 -1.498958 152.027881 -57.449554 -146.000500 -3.733726 3.215368 0.512560 -0.005300 0.157720 0.064000 6.127777 8.297954 3.784348 35.351307 4.820076 -15.982418 -19.738641 68.819116 -12.738698 1.674838 -1.329679 -0.121670 0.164400 -0.083230 -0.239090 
